<svg width="149" height="30" viewBox="0 0 149 30" fill="none" xmlns="http://www.w3.org/2000/svg">
<path d="M39.8538 21.9648C39.7431 21.9648 39.6392 21.9232 39.5423 21.8402C39.4592 21.7432 39.4177 21.6394 39.4177 21.5286C39.4177 21.4455 39.4246 21.3832 39.4385 21.3417L44.3192 8.00786C44.3608 7.84171 44.4508 7.70324 44.5892 7.59247C44.7277 7.4817 44.9077 7.42632 45.1292 7.42632H48.2031C48.4246 7.42632 48.6046 7.4817 48.7431 7.59247C48.8815 7.70324 48.9715 7.84171 49.0131 8.00786L53.8731 21.3417L53.9146 21.5286C53.9146 21.6394 53.8661 21.7432 53.7692 21.8402C53.6861 21.9232 53.5823 21.9648 53.4577 21.9648H50.9031C50.5708 21.9648 50.3492 21.8194 50.2385 21.5286L49.4285 19.4102H43.8831L43.0938 21.5286C42.9831 21.8194 42.7546 21.9648 42.4085 21.9648H39.8538ZM48.5977 16.4194L46.6661 10.9363L44.7346 16.4194H48.5977Z" fill="#09032F"/>
<path d="M58.614 22.1725C57.4924 22.1725 56.5509 22.0132 55.7893 21.6948C55.0416 21.3763 54.4878 20.9956 54.1278 20.5525C53.7678 20.1094 53.5878 19.7148 53.5878 19.3686C53.5878 19.2302 53.6363 19.1194 53.7332 19.0363C53.844 18.9394 53.9616 18.8909 54.0863 18.8909H56.454C56.537 18.8909 56.6132 18.9256 56.6824 18.9948C56.8486 19.1056 56.9732 19.1955 57.0563 19.2648C57.3609 19.4863 57.624 19.6525 57.8455 19.7632C58.0809 19.8602 58.3647 19.9086 58.697 19.9086C59.0986 19.9086 59.424 19.8325 59.6732 19.6802C59.9363 19.514 60.0678 19.2856 60.0678 18.9948C60.0678 18.7594 59.9986 18.5725 59.8601 18.434C59.7355 18.2956 59.4863 18.164 59.1124 18.0394C58.7386 17.9009 58.1709 17.7556 57.4093 17.6032C56.2601 17.3679 55.374 16.9871 54.7509 16.4609C54.1416 15.9209 53.837 15.2009 53.837 14.3009C53.837 13.7332 54.017 13.1932 54.377 12.6809C54.737 12.1686 55.2701 11.7532 55.9763 11.4348C56.6963 11.1163 57.5478 10.9571 58.5309 10.9571C59.514 10.9571 60.3724 11.1094 61.1063 11.414C61.8401 11.7186 62.394 12.0925 62.7678 12.5356C63.1555 12.9648 63.3493 13.3594 63.3493 13.7194C63.3493 13.844 63.3009 13.9548 63.204 14.0517C63.1209 14.1486 63.017 14.1971 62.8924 14.1971H60.7324C60.6216 14.1971 60.5178 14.1625 60.4209 14.0932C60.2409 13.9963 60.0816 13.8925 59.9432 13.7817C59.7078 13.6017 59.4863 13.4632 59.2786 13.3663C59.0709 13.2694 58.8147 13.2209 58.5101 13.2209C58.1501 13.2209 57.8593 13.304 57.6378 13.4702C57.4301 13.6363 57.3263 13.8509 57.3263 14.114C57.3263 14.3217 57.3816 14.4948 57.4924 14.6332C57.617 14.7717 57.8663 14.9102 58.2401 15.0486C58.6278 15.1732 59.1955 15.3048 59.9432 15.4432C61.2863 15.6786 62.2624 16.094 62.8716 16.6894C63.4947 17.2848 63.8063 17.984 63.8063 18.7871C63.8063 19.8117 63.3493 20.6356 62.4355 21.2586C61.5216 21.8679 60.2478 22.1725 58.614 22.1725Z" fill="#09032F"/>
<path d="M68.94 22.1725C67.8184 22.1725 66.8769 22.0132 66.1154 21.6948C65.3677 21.3763 64.8138 20.9956 64.4538 20.5525C64.0938 20.1094 63.9138 19.7148 63.9138 19.3686C63.9138 19.2302 63.9623 19.1194 64.0592 19.0363C64.17 18.9394 64.2877 18.8909 64.4123 18.8909H66.78C66.8631 18.8909 66.9392 18.9256 67.0084 18.9948C67.1746 19.1056 67.2992 19.1955 67.3823 19.2648C67.6869 19.4863 67.95 19.6525 68.1715 19.7632C68.4069 19.8602 68.6907 19.9086 69.0231 19.9086C69.4246 19.9086 69.75 19.8325 69.9992 19.6802C70.2623 19.514 70.3938 19.2856 70.3938 18.9948C70.3938 18.7594 70.3246 18.5725 70.1861 18.434C70.0615 18.2956 69.8123 18.164 69.4384 18.0394C69.0646 17.9009 68.4969 17.7556 67.7354 17.6032C66.5861 17.3679 65.7 16.9871 65.0769 16.4609C64.4677 15.9209 64.1631 15.2009 64.1631 14.3009C64.1631 13.7332 64.3431 13.1932 64.7031 12.6809C65.0631 12.1686 65.5961 11.7532 66.3023 11.4348C67.0223 11.1163 67.8738 10.9571 68.8569 10.9571C69.84 10.9571 70.6984 11.1094 71.4323 11.414C72.1661 11.7186 72.72 12.0925 73.0938 12.5356C73.4815 12.9648 73.6754 13.3594 73.6754 13.7194C73.6754 13.844 73.6269 13.9548 73.53 14.0517C73.4469 14.1486 73.3431 14.1971 73.2184 14.1971H71.0584C70.9477 14.1971 70.8438 14.1625 70.7469 14.0932C70.5669 13.9963 70.4077 13.8925 70.2692 13.7817C70.0338 13.6017 69.8123 13.4632 69.6046 13.3663C69.3969 13.2694 69.1407 13.2209 68.8361 13.2209C68.4761 13.2209 68.1854 13.304 67.9638 13.4702C67.7561 13.6363 67.6523 13.8509 67.6523 14.114C67.6523 14.3217 67.7077 14.4948 67.8184 14.6332C67.9431 14.7717 68.1923 14.9102 68.5661 15.0486C68.9538 15.1732 69.5215 15.3048 70.2692 15.4432C71.6123 15.6786 72.5884 16.094 73.1977 16.6894C73.8207 17.2848 74.1323 17.984 74.1323 18.7871C74.1323 19.8117 73.6754 20.6356 72.7615 21.2586C71.8477 21.8679 70.5738 22.1725 68.94 22.1725Z" fill="#09032F"/>
<path d="M79.806 22.1725C78.1445 22.1725 76.836 21.7225 75.8806 20.8225C74.9252 19.9225 74.4268 18.614 74.3852 16.8971V16.1702C74.4406 14.5363 74.946 13.2625 75.9014 12.3486C76.8706 11.4209 78.1652 10.9571 79.7852 10.9571C80.9622 10.9571 81.9522 11.1994 82.7552 11.684C83.5722 12.1548 84.1814 12.8056 84.5829 13.6363C84.9983 14.4671 85.206 15.4225 85.206 16.5025V17.0009C85.206 17.1394 85.1575 17.264 85.0606 17.3748C84.9637 17.4717 84.8391 17.5202 84.6868 17.5202H78.0406V17.6656C78.0683 18.3163 78.2275 18.8425 78.5183 19.244C78.8091 19.6455 79.2314 19.8463 79.7852 19.8463C80.1314 19.8463 80.4152 19.7771 80.6368 19.6386C80.8583 19.4863 81.0591 19.3063 81.2391 19.0986C81.3637 18.9463 81.4606 18.8563 81.5298 18.8286C81.6129 18.7871 81.7375 18.7663 81.9037 18.7663H84.4791C84.6037 18.7663 84.7075 18.8079 84.7906 18.8909C84.8875 18.9602 84.936 19.0571 84.936 19.1817C84.936 19.5417 84.7283 19.9571 84.3129 20.4279C83.9114 20.8986 83.3229 21.3071 82.5475 21.6532C81.7721 21.9994 80.8583 22.1725 79.806 22.1725ZM81.5506 15.464V15.4225C81.5506 14.744 81.3914 14.2109 81.0729 13.8232C80.7683 13.4217 80.3391 13.2209 79.7852 13.2209C79.2452 13.2209 78.816 13.4217 78.4975 13.8232C78.1929 14.2109 78.0406 14.744 78.0406 15.4225V15.464H81.5506Z" fill="#09032F"/>
<path d="M86.5185 21.9648C86.3662 21.9648 86.2416 21.9163 86.1446 21.8194C86.0477 21.7225 85.9993 21.5979 85.9993 21.4455V11.684C85.9993 11.5317 86.0477 11.4071 86.1446 11.3102C86.2416 11.2132 86.3662 11.1648 86.5185 11.1648H88.7823C88.9347 11.1648 89.0593 11.2132 89.1562 11.3102C89.2531 11.4071 89.3016 11.5317 89.3016 11.684V12.3902C89.62 11.9748 90.0423 11.6356 90.5685 11.3725C91.1085 11.0956 91.7108 10.9571 92.3754 10.9571C93.8985 10.9571 94.9508 11.5525 95.5323 12.7432C95.8647 12.2171 96.3285 11.7879 96.9239 11.4556C97.5193 11.1232 98.1562 10.9571 98.8346 10.9571C99.97 10.9571 100.891 11.3448 101.597 12.1202C102.317 12.8817 102.677 14.024 102.677 15.5471V21.4455C102.677 21.584 102.628 21.7086 102.532 21.8194C102.435 21.9163 102.31 21.9648 102.158 21.9648H99.7485C99.5962 21.9648 99.4647 21.9163 99.3539 21.8194C99.257 21.7225 99.2085 21.5979 99.2085 21.4455V15.6925C99.2085 15.0002 99.0631 14.5017 98.7723 14.1971C98.4954 13.8925 98.1147 13.7402 97.63 13.7402C97.187 13.7402 96.82 13.8994 96.5293 14.2179C96.2385 14.5225 96.0931 15.014 96.0931 15.6925V21.4455C96.0931 21.584 96.0446 21.7086 95.9477 21.8194C95.8508 21.9163 95.7262 21.9648 95.5739 21.9648H93.1646C93.0123 21.9648 92.8877 21.9163 92.7908 21.8194C92.6939 21.7225 92.6454 21.5979 92.6454 21.4455V15.6925C92.6454 15.014 92.4931 14.5225 92.1885 14.2179C91.8977 13.8994 91.5239 13.7402 91.067 13.7402C90.6239 13.7402 90.25 13.8994 89.9454 14.2179C89.6546 14.5225 89.5093 15.0071 89.5093 15.6717V21.4455C89.5093 21.584 89.4608 21.7086 89.3639 21.8194C89.267 21.9163 89.1423 21.9648 88.99 21.9648H86.5185Z" fill="#09032F"/>
<path d="M110.475 22.1725C109.09 22.1725 108.017 21.7086 107.256 20.7809V21.4455C107.256 21.584 107.207 21.7086 107.11 21.8194C107.013 21.9163 106.889 21.9648 106.737 21.9648H104.39C104.251 21.9648 104.127 21.9163 104.016 21.8194C103.919 21.7086 103.87 21.584 103.87 21.4455V7.73786C103.87 7.58555 103.919 7.46094 104.016 7.36401C104.127 7.26709 104.251 7.21863 104.39 7.21863H106.923C107.076 7.21863 107.2 7.26709 107.297 7.36401C107.394 7.46094 107.443 7.58555 107.443 7.73786V12.1825C108.218 11.3656 109.229 10.9571 110.475 10.9571C111.818 10.9571 112.877 11.3932 113.653 12.2656C114.428 13.1379 114.843 14.3217 114.899 15.8171C114.913 15.9971 114.92 16.2463 114.92 16.5648C114.92 16.8694 114.913 17.1117 114.899 17.2917C114.83 18.8425 114.414 20.0471 113.653 20.9056C112.891 21.7502 111.832 22.1725 110.475 22.1725ZM109.353 19.3894C110.004 19.3894 110.468 19.1955 110.745 18.8079C111.036 18.4202 111.202 17.8871 111.243 17.2086C111.271 16.9317 111.285 16.7171 111.285 16.5648C111.285 16.4125 111.271 16.1979 111.243 15.9209C111.202 15.2425 111.036 14.7094 110.745 14.3217C110.468 13.934 110.004 13.7402 109.353 13.7402C108.744 13.7402 108.28 13.9271 107.962 14.3009C107.643 14.6748 107.47 15.1456 107.443 15.7132L107.422 16.4817L107.443 17.2709C107.484 17.894 107.65 18.4063 107.941 18.8079C108.246 19.1955 108.717 19.3894 109.353 19.3894Z" fill="#09032F"/>
<path d="M116.338 21.9648C116.2 21.9648 116.075 21.9163 115.964 21.8194C115.867 21.7086 115.819 21.584 115.819 21.4455V7.73786C115.819 7.58555 115.867 7.46094 115.964 7.36401C116.075 7.26709 116.2 7.21863 116.338 7.21863H118.789C118.941 7.21863 119.066 7.26709 119.163 7.36401C119.26 7.46094 119.308 7.58555 119.308 7.73786V21.4455C119.308 21.5979 119.26 21.7225 119.163 21.8194C119.066 21.9163 118.941 21.9648 118.789 21.9648H116.338Z" fill="#09032F"/>
<path d="M122.623 25.9109C122.498 25.9109 122.394 25.8694 122.311 25.7863C122.228 25.7032 122.186 25.5994 122.186 25.4748C122.186 25.3779 122.207 25.2879 122.249 25.2048L123.869 21.3002L119.881 11.8709C119.839 11.7602 119.819 11.6771 119.819 11.6217C119.846 11.4971 119.902 11.3932 119.985 11.3102C120.068 11.2132 120.172 11.1648 120.296 11.1648H122.664C122.955 11.1648 123.156 11.3102 123.266 11.6009L125.634 17.6448L128.064 11.6009C128.203 11.3102 128.41 11.1648 128.687 11.1648H131.013C131.138 11.1648 131.242 11.2132 131.325 11.3102C131.422 11.3932 131.47 11.4902 131.47 11.6009C131.47 11.6563 131.449 11.7463 131.408 11.8709L125.53 25.4748C125.419 25.7655 125.212 25.9109 124.907 25.9109H122.623Z" fill="#09032F"/>
<path d="M130.413 21.9648C130.302 21.9648 130.198 21.9232 130.101 21.8402C130.018 21.7432 129.977 21.6394 129.977 21.5286C129.977 21.4455 129.983 21.3832 129.997 21.3417L134.878 8.00786C134.92 7.84171 135.01 7.70324 135.148 7.59247C135.287 7.4817 135.467 7.42632 135.688 7.42632H138.762C138.983 7.42632 139.163 7.4817 139.302 7.59247C139.44 7.70324 139.53 7.84171 139.572 8.00786L144.432 21.3417L144.473 21.5286C144.473 21.6394 144.425 21.7432 144.328 21.8402C144.245 21.9232 144.141 21.9648 144.017 21.9648H141.462C141.13 21.9648 140.908 21.8194 140.797 21.5286L139.987 19.4102H134.442L133.653 21.5286C133.542 21.8194 133.313 21.9648 132.967 21.9648H130.413ZM139.157 16.4194L137.225 10.9363L135.294 16.4194H139.157Z" fill="#09032F"/>
<path d="M145.476 21.9648C145.337 21.9648 145.213 21.9163 145.102 21.8194C145.005 21.7086 144.957 21.584 144.957 21.4455V7.94555C144.957 7.79324 145.005 7.66863 145.102 7.57171C145.213 7.47478 145.337 7.42632 145.476 7.42632H148.259C148.411 7.42632 148.536 7.47478 148.633 7.57171C148.744 7.66863 148.799 7.79324 148.799 7.94555V21.4455C148.799 21.5979 148.744 21.7225 148.633 21.8194C148.536 21.9163 148.411 21.9648 148.259 21.9648H145.476Z" fill="#09032F"/>
<g clip-path="url(#clip0_2_25)">
<g clip-path="url(#clip1_2_25)">
<path d="M2.83458 20.0631L0.460632 25.6434C-0.205441 27.2057 -0.330696 28.9873 1.33733 29.6079C1.73584 29.7577 2.14003 29.8273 2.54423 29.8273C3.83083 29.8273 5.05481 29.0997 5.56148 27.9066L6.03969 26.783L9.70024 18.1852L13.3437 9.61948C14.2132 8.0969 14.7465 5.75387 18.1599 4.49396C15.5062 4.15363 10.1567 3.45331 10.1032 3.45331C10.069 3.50681 9.71164 4.04989 9.67748 4.1034C9.60347 4.2211 9.52946 4.34416 9.47253 4.47256C9.46684 4.48326 9.46684 4.48861 9.46115 4.49396L2.84027 20.0524C2.84027 20.0524 2.83458 20.0578 2.83458 20.0631Z" fill="url(#paint0_radial_2_25)"/>
<path d="M26.5676 20.0631L28.9415 25.6434C29.6076 27.2056 29.7329 28.9873 28.0648 29.6079C27.6663 29.7577 27.2621 29.8272 26.8579 29.8272C25.5713 29.8272 24.3474 29.0996 23.8407 27.9065L23.3625 26.783L19.7019 18.1851L16.0585 9.61943C15.1889 8.09685 13.721 4.94951 9.8008 3.93214C10.2961 2.77114 11.9937 2.57318 13.3201 2.57318H16.9181H16.9465C17.0889 2.57853 17.2255 2.59458 17.3735 2.61598C17.4475 2.62668 17.5272 2.62668 17.6012 2.64273C17.698 2.66414 17.7891 2.70159 17.8859 2.72834C17.994 2.76044 18.1022 2.78184 18.2047 2.82464C18.2502 2.84604 18.2958 2.87279 18.3413 2.89419C18.4836 2.9584 18.6203 3.0226 18.7512 3.10285C18.8423 3.15636 18.9163 3.23126 19.0017 3.29546C19.0757 3.35431 19.1611 3.40782 19.2294 3.47202C19.292 3.53622 19.349 3.61113 19.4116 3.68068C19.4856 3.76628 19.5653 3.84119 19.6279 3.93214C19.6621 3.98564 19.6905 4.04984 19.7247 4.10335C19.7987 4.22105 19.8727 4.34411 19.9296 4.47251C19.9353 4.48321 19.9353 4.48856 19.941 4.49391L26.5619 20.0524C26.5619 20.0524 26.5676 20.0577 26.5676 20.0631Z" fill="url(#paint1_radial_2_25)"/>
</g>
</g>
<defs>
<radialGradient id="paint0_radial_2_25" cx="0" cy="0" r="1" gradientUnits="userSpaceOnUse" gradientTransform="translate(11.2713 6.37537) rotate(112.412) scale(25.705 17.5463)">
<stop stop-color="#142167"/>
<stop offset="1" stop-color="#263DB5"/>
</radialGradient>
<radialGradient id="paint1_radial_2_25" cx="0" cy="0" r="1" gradientUnits="userSpaceOnUse" gradientTransform="translate(27.4978 8.56066) rotate(132.41) scale(23.8597 83.4813)">
<stop stop-color="#4259D4"/>
<stop offset="1" stop-color="#6A81FC"/>
</radialGradient>
<clipPath id="clip0_2_25">
<rect width="30" height="30" fill="white"/>
</clipPath>
<clipPath id="clip1_2_25">
<rect width="30" height="30" fill="white" transform="translate(7.62939e-06 1.15384)"/>
</clipPath>
</defs>
</svg>
